<svg id="SvgjsSvg1001" width="288" height="288" xmlns="http://www.w3.org/2000/svg" version="1.1" xmlns:xlink="http://www.w3.org/1999/xlink" xmlns:svgjs="http://svgjs.com/svgjs"><defs id="SvgjsDefs1002"></defs><g id="SvgjsG1008"><svg xmlns="http://www.w3.org/2000/svg" fill-rule="evenodd" clip-rule="evenodd" image-rendering="optimizeQuality" shape-rendering="geometricPrecision" text-rendering="geometricPrecision" viewBox="0 0 700 700" width="288" height="288"><path d="M249.23 472.69c-6.66 0-12.08-5.42-12.08-12.08v-21.67h-20.41c-6.67 0-12.08-5.41-12.08-12.08V261.47c0-6.66 5.41-12.08 12.08-12.08h20.41v-22.08c0-15.9 24.16-15.9 24.16 0v22.08h20c6.67 0 12.08 5.42 12.08 12.08v165.39c0 6.67-5.41 12.08-12.08 12.08h-20v21.67c-.41 6.66-5.41 12.08-12.08 12.08zm148.73-118.73h-20v44.57c0 15.9-24.16 15.91-24.16 0v-44.57h-20.41c-6.67 0-12.08-5.42-12.08-12.08V199.4c0-6.67 5.41-12.08 12.08-12.08h20.41v-21.66c0-15.91 24.16-15.91 24.16 0v21.66h20c6.66 0 12.08 5.41 12.08 12.08v142.48c0 6.66-5.42 12.08-12.08 12.08zm-52.49-24.17h40.82V211.48h-40.82v118.31zM514.6 438.94h-19.99v21.67c0 15.9-24.16 15.9-24.16 0v-21.67h-20.42c-6.66 0-12.08-5.41-12.08-12.08V322.71c0-6.66 5.42-12.08 12.08-12.08h20.42v-83.32c0-15.9 24.16-15.9 24.16 0v83.32h19.99c6.67 0 12.09 5.42 12.09 12.08v104.15c0 6.67-5.42 12.08-12.09 12.08zm-52.49-24.16h40.83v-79.99h-40.83v79.99zm108.1 107.48H130.09c-6.67 0-12.08-5.41-12.08-12.08V229.29c-5.14 3.65-7.72 6.77-12.09 6.77-11.89 0-15.65-15.27-7.08-21.66l22.56-16.73c6.52-5.72 12.37-4.62 18.22.97l22.13 15.76c12.69 8.91-.9 28.37-14.17 19.58l-5.41-3.95v41.02l27.91.01c15.78 0 15.95 24.16.42 24.16h-28.33v51.65l27.91.01c15.78 0 15.95 24.16.42 24.16h-28.33v51.65l27.91.01c15.78 0 15.95 24.16.42 24.16h-28.33v51.24h428.04l-3.95-5.42c-3.75-5.41-2.5-12.91 2.5-16.66 5.42-3.75 12.92-2.5 16.67 2.5l16.8 23.05c4.9 5.68 4.89 11.54 0 17.22l-16.8 23.05c-8.54 11.84-29.09-.91-19.17-14.16l3.95-5.42zM228.82 414.78h40.83V273.14h-40.83v141.64z" fill="#ffffff" class="color000 svgShape"></path></svg></g></svg>