<svg width="32" height="32" viewBox="0 0 32 32" fill="none" xmlns="http://www.w3.org/2000/svg">
<path d="M16 31C24.2843 31 31 24.2843 31 16C31 7.71573 24.2843 1 16 1C7.71573 1 1 7.71573 1 16C1 24.2843 7.71573 31 16 31Z" fill="#96D7FF"/>
<path d="M2.35 17C2.35253 14.2944 3.08681 11.6398 4.47506 9.31754C5.86331 6.99524 7.85384 5.09166 10.2358 3.80844C12.6177 2.52522 15.3024 1.91015 18.0054 2.02837C20.7085 2.1466 23.3292 2.99372 25.59 4.48C24.0327 3.11051 22.2083 2.07881 20.2321 1.45008C18.2558 0.821341 16.1707 0.609226 14.1084 0.827126C12.046 1.04503 10.0512 1.68821 8.25005 2.71605C6.44885 3.74389 4.88036 5.13407 3.64362 6.79877C2.40688 8.46348 1.52877 10.3666 1.06474 12.3878C0.600719 14.4091 0.56086 16.5046 0.947686 18.542C1.33451 20.5794 2.13962 22.5145 3.31215 24.2251C4.48469 25.9356 5.99919 27.3844 7.76 28.48C6.07399 27.0782 4.71581 25.3238 3.7811 23.3403C2.8464 21.3569 2.35789 19.1926 2.35 17Z" fill="#86C3EF"/>
<path d="M16 6.09C14.0647 6.09264 12.2095 6.8626 10.841 8.23104C9.4726 9.59948 8.70265 11.4547 8.7 13.39V28.49C8.70056 28.6747 8.75224 28.8556 8.84932 29.0127C8.9464 29.1698 9.08509 29.2969 9.25 29.38C11.3407 30.4451 13.6537 31.0003 16 31.0003C18.3463 31.0003 20.6593 30.4451 22.75 29.38C22.9149 29.2969 23.0536 29.1698 23.1507 29.0127C23.2478 28.8556 23.2994 28.6747 23.3 28.49V13.39C23.2974 11.4547 22.5274 9.59948 21.159 8.23104C19.7905 6.8626 17.9353 6.09264 16 6.09Z" fill="#BF9E99"/>
<path d="M16 31C19.7389 31.001 23.3411 29.5943 26.09 27.06C26.1043 26.984 26.1043 26.906 26.09 26.83C25.6479 25.5086 24.8019 24.3595 23.6715 23.5449C22.5411 22.7303 21.1834 22.2913 19.79 22.29H12.29C10.8984 22.2934 9.54286 22.7334 8.41444 23.5478C7.28602 24.3623 6.44156 25.5103 6 26.83C5.98566 26.906 5.98566 26.984 6 27.06C8.72602 29.5734 12.2922 30.9785 16 31Z" fill="#FF9797"/>
<path d="M6.51 27.39C6.95472 26.0703 7.80137 24.9229 8.9312 24.1087C10.061 23.2945 11.4174 22.8543 12.81 22.85H20.32C21.9361 22.8566 23.494 23.4541 24.7 24.53C24.0791 23.8292 23.3172 23.2674 22.4642 22.8814C21.6112 22.4954 20.6863 22.2939 19.75 22.29H12.25C10.8652 22.3018 9.51863 22.7455 8.39819 23.5594C7.27775 24.3733 6.43935 25.5167 6 26.83C5.98566 26.906 5.98566 26.984 6 27.06C6.18 27.23 6.38 27.38 6.57 27.54C6.54499 27.4922 6.52489 27.4419 6.51 27.39Z" fill="#E47979"/>
<path d="M18.7 15.83H13.3C13.0348 15.83 12.7804 15.9354 12.5929 16.1229C12.4054 16.3104 12.3 16.5648 12.3 16.83V23.3C12.3009 23.4647 12.3424 23.6267 12.4209 23.7715C12.4994 23.9162 12.6124 24.0394 12.75 24.13L15.45 25.93C15.6133 26.0375 15.8045 26.0948 16 26.0948C16.1955 26.0948 16.3867 26.0375 16.55 25.93L19.25 24.13C19.3876 24.0394 19.5006 23.9162 19.5791 23.7715C19.6576 23.6267 19.6991 23.4647 19.7 23.3V16.83C19.7 16.5648 19.5946 16.3104 19.4071 16.1229C19.2196 15.9354 18.9652 15.83 18.7 15.83Z" fill="#ECC5B4"/>
<path d="M21.5 12.77H10.5C9.70435 12.77 8.94129 13.0861 8.37868 13.6487C7.81607 14.2113 7.5 14.9744 7.5 15.77C7.5 16.5657 7.81607 17.3287 8.37868 17.8913C8.94129 18.4539 9.70435 18.77 10.5 18.77H21.5C22.2956 18.77 23.0587 18.4539 23.6213 17.8913C24.1839 17.3287 24.5 16.5657 24.5 15.77C24.5 14.9744 24.1839 14.2113 23.6213 13.6487C23.0587 13.0861 22.2956 12.77 21.5 12.77Z" fill="#ECC5B4"/>
<path d="M18.46 9H13.54C12.6144 9 11.7267 9.3677 11.0722 10.0222C10.4177 10.6767 10.05 11.5644 10.05 12.49V15.85C10.05 17.428 10.6769 18.9414 11.7927 20.0573C12.9086 21.1731 14.422 21.8 16 21.8C17.578 21.8 19.0914 21.1731 20.2073 20.0573C21.3231 18.9414 21.95 17.428 21.95 15.85V12.46C21.9421 11.5396 21.5709 10.6596 20.9173 10.0116C20.2636 9.36354 19.3804 8.99997 18.46 9Z" fill="#F4DAB7"/>
<path d="M23.2 12.66H23.26C23.1459 11.4963 22.7531 10.3771 22.1149 9.39733C21.4768 8.41752 20.612 7.60585 19.5937 7.031C18.5755 6.45615 17.4337 6.13503 16.2651 6.09482C15.0965 6.05461 13.9354 6.29649 12.88 6.8C12.8044 7.05529 12.8258 7.3295 12.94 7.57C13.6182 8.9822 14.6266 10.2102 15.88 11.15C17.4046 12.2899 19.2564 12.9071 21.16 12.91C21.8473 12.9048 22.5318 12.821 23.2 12.66Z" fill="#D6B5B0"/>
<path d="M19 6.76C17.8904 6.25695 16.6723 6.04003 15.4572 6.12907C14.2421 6.21811 13.0687 6.61027 12.0443 7.26971C11.0198 7.92914 10.1769 8.83482 9.59274 9.90398C9.00853 10.9731 8.7016 12.1716 8.7 13.39V13.78C9.09381 13.8402 9.49163 13.8702 9.89 13.87C11.2188 13.8685 12.5317 13.5811 13.7395 13.0272C14.9474 12.4733 16.0218 11.666 16.89 10.66C17.8593 9.53762 18.5785 8.22181 19 6.8V6.76Z" fill="#D6B5B0"/>
</svg>
